<svg width="52" height="52" viewBox="0 0 52 52" fill="none" xmlns="http://www.w3.org/2000/svg">
<path d="M26 0C29.4144 0 32.7953 0.67251 35.9498 1.97913C39.1042 3.28575 41.9705 5.2009 44.3848 7.61522C46.7991 10.0295 48.7142 12.8958 50.0209 16.0502C51.3275 19.2047 52 22.5856 52 26C52 32.8956 49.2607 39.5088 44.3848 44.3848C39.5088 49.2607 32.8956 52 26 52C19.1044 52 12.4912 49.2607 7.61522 44.3848C2.73928 39.5088 5.04678e-07 32.8956 0 26C-2.01871e-07 19.1044 2.73928 12.4912 7.61522 7.61522C12.4912 2.73928 19.1044 3.02807e-07 26 0Z" fill="#ED944A"/>
<path d="M18.2755 13.7014C17.1047 13.7015 15.9332 14.1477 15.0399 15.0403C13.2546 16.827 13.2549 19.7229 15.0399 21.5097L19.5304 26.0002L15.0435 30.4871C13.2539 32.2732 13.2535 35.1711 15.04 36.9601C16.8286 38.7472 19.7252 38.7444 21.513 36.9567L25.9999 32.4698L30.4868 36.9567C32.2747 38.7445 35.1731 38.7473 36.9616 36.9601C38.748 35.1711 38.7459 32.2732 36.9546 30.4871L32.4677 26.0002L36.96 21.5097C38.745 19.7229 38.7453 16.827 36.96 15.0403C35.1734 13.2551 32.2765 13.2544 30.4906 15.0403L25.9983 19.5308L21.5078 15.0403C20.6149 14.1474 19.4463 13.7013 18.2755 13.7014Z" fill="white"/>
</svg>
