<svg width="120" height="120" viewBox="0 0 120 120" fill="none" xmlns="http://www.w3.org/2000/svg">
<path d="M68.359 103.383C82.0551 103.383 95.1903 97.9423 104.875 88.2577C114.559 78.5731 120 65.4379 120 51.7418C120 38.0457 114.559 24.9106 104.875 15.226C95.1903 5.54134 82.0551 0.100587 68.359 0.100586C54.6629 0.100587 41.5278 5.54134 31.8431 15.226C22.1585 24.9106 16.7178 38.0457 16.7178 51.7418C16.7178 65.4379 22.1585 78.5731 31.8431 88.2577C41.5278 97.9423 54.6629 103.383 68.359 103.383Z" fill="#F9D376" fill-opacity="0.3"/>
<path d="M51.6412 16.7178C58.4229 16.7178 65.1381 18.0535 71.4035 20.6487C77.6689 23.2439 83.3618 27.0478 88.1571 31.8431C92.9525 36.6385 96.7563 42.3314 99.3515 48.5968C101.947 54.8622 103.282 61.5774 103.282 68.359C103.282 82.0551 97.8417 95.1903 88.1571 104.875C78.4725 114.56 65.3373 120 51.6412 120C37.9451 120 24.81 114.56 15.1254 104.875C5.44076 95.1903 1.00239e-06 82.0551 0 68.359C-4.00957e-07 54.6629 5.44076 41.5278 15.1254 31.8431C24.81 22.1585 37.9451 16.7178 51.6412 16.7178Z" fill="#ED944A"/>
<path d="M36.2984 43.9311C33.973 43.9313 31.6462 44.8176 29.8719 46.5905C26.3259 50.1392 26.3266 55.8911 29.8719 59.44L38.7909 68.359L29.879 77.271C26.3244 80.8185 26.3237 86.5743 29.8721 90.1277C33.4245 93.6771 39.1778 93.6715 42.7287 90.1208L51.6407 81.2089L60.5526 90.1208C64.1036 93.6718 69.8604 93.6773 73.4128 90.1276C76.961 86.5743 76.9567 80.8185 73.3988 77.2709L64.487 68.359L73.4096 59.44C76.9549 55.8911 76.9556 50.1392 73.4096 46.5905C69.861 43.0447 64.1072 43.0434 60.5601 46.5905L51.6375 55.5095L42.7185 46.5905C40.945 44.8169 38.6238 43.9309 36.2984 43.9311Z" fill="white"/>
</svg>
