<svg width="20" height="20" viewBox="0 0 20 20" fill="none" xmlns="http://www.w3.org/2000/svg">
<path d="M18.7511 10.1941C18.7511 9.47471 18.6916 8.94971 18.5626 8.40527H10.1797V11.6525H15.1003C15.0011 12.4595 14.4654 13.6747 13.2749 14.4913L13.2582 14.6001L15.9088 16.6123L16.0924 16.6303C17.7789 15.1039 18.7511 12.858 18.7511 10.1941Z" fill="#4285F4"/>
<path d="M10.1793 18.75C12.59 18.75 14.6137 17.9722 16.092 16.6305L13.2745 14.4915C12.5206 15.0068 11.5086 15.3665 10.1793 15.3665C7.81824 15.3665 5.81428 13.8402 5.09993 11.7305L4.99522 11.7392L2.23917 13.8295L2.20312 13.9277C3.67136 16.786 6.68724 18.75 10.1793 18.75Z" fill="#34A853"/>
<path d="M5.10014 11.7307C4.91166 11.1863 4.80257 10.6029 4.80257 10.0002C4.80257 9.39737 4.91166 8.81405 5.09023 8.26962L5.08523 8.15362L2.29464 6.02979L2.20334 6.07235C1.59821 7.25849 1.25098 8.59043 1.25098 10.0002C1.25098 11.4099 1.59821 12.7418 2.20334 13.9279L5.10014 11.7307Z" fill="#FBBC05"/>
<path d="M10.1794 4.63331C11.8559 4.63331 12.9869 5.34303 13.6317 5.93612L16.1516 3.525C14.604 2.11528 12.5901 1.25 10.1794 1.25C6.68724 1.25 3.67137 3.21388 2.20312 6.07218L5.09002 8.26944C5.8143 6.15972 7.81824 4.63331 10.1794 4.63331Z" fill="#EB4335"/>
</svg>
