<svg xmlns="http://www.w3.org/2000/svg" width="20" height="20" viewBox="0 0 20 20" fill="none">
  <path fill-rule="evenodd" clip-rule="evenodd" d="M11.9167 4.16683C11.9167 4.97225 11.2638 5.62516 10.4583 5.62516C9.65292 5.62516 9 4.97225 9 4.16683C9 3.36141 9.65292 2.7085 10.4583 2.7085C11.2638 2.7085 11.9167 3.36141 11.9167 4.16683ZM11.9167 15.8335C11.9167 16.6389 11.2638 17.2918 10.4583 17.2918C9.65292 17.2918 9 16.6389 9 15.8335C9 15.0281 9.65292 14.3752 10.4583 14.3752C11.2638 14.3752 11.9167 15.0281 11.9167 15.8335ZM10.4583 11.4585C11.2638 11.4585 11.9167 10.8056 11.9167 10.0002C11.9167 9.19475 11.2638 8.54183 10.4583 8.54183C9.65292 8.54183 9 9.19475 9 10.0002C9 10.8056 9.65292 11.4585 10.4583 11.4585Z" fill="#BBBBBB"/>
</svg>