<svg width="31" height="30" viewBox="0 0 31 30" fill="none" xmlns="http://www.w3.org/2000/svg">
<path opacity="0.998" d="M4.93945 0.9375H26.0571C27.3555 0.9375 28.4008 1.98281 28.4008 3.28125V8.32031C28.4008 9.61875 27.3555 10.6641 26.0571 10.6641H4.93945C3.64102 10.6641 2.5957 9.61875 2.5957 8.32031V3.28125C2.5957 1.98281 3.64102 0.9375 4.93945 0.9375Z" fill="#787878"/>
<path d="M6.01103 5.54932C5.36361 5.54871 4.83834 6.0732 4.83887 6.72149C4.83921 7.36894 5.36451 7.89345 6.01169 7.89306L24.9898 7.89305C25.6365 7.89273 26.1608 7.3685 26.1611 6.72176C26.1608 6.07503 25.6366 5.55081 24.9898 5.55045L6.01103 5.54932Z" fill="white"/>
<path d="M7.0625 5.54932V26.7186C7.0625 28.017 8.10781 29.0623 9.40625 29.0623H21.5937C22.8922 29.0623 23.9375 28.017 23.9375 26.7186V5.54932H7.0625Z" fill="#ED944A"/>
<path d="M7.0625 5.54932V24.6893C9.3817 24.8284 11.1974 26.7391 11.2181 29.0623H19.7819C19.8026 26.7391 21.6183 24.8284 23.9375 24.6893V5.54932H7.0625Z" fill="#F9D376"/>
<path d="M16.5647 10.9102C14.3708 10.3223 12.1157 11.6243 11.5279 13.8182C10.94 16.0121 12.2419 18.2672 14.4359 18.8551C16.6297 19.4427 18.8845 18.1407 19.4723 15.9469C20.0636 13.7401 18.7508 11.4962 16.5647 10.9102Z" fill="white"/>
</svg>
