<svg width="31" height="30" viewBox="0 0 31 30" fill="none" xmlns="http://www.w3.org/2000/svg">
<path d="M20.4527 16.523C19.659 16.523 18.8652 16.8357 18.257 17.4612C17.0406 18.7122 17.0406 20.7266 18.257 21.9776L22.4442 26.2837C22.6211 26.4657 22.922 26.7203 23.4661 26.7203C24.0103 26.7203 24.2751 26.5019 24.4873 26.2837L28.6744 21.9776C29.8908 20.7266 29.8908 18.7122 28.6744 17.4612C27.458 16.2102 25.4994 16.2102 24.283 17.4612L23.4656 18.3019L22.6484 17.4612C22.0402 16.8357 21.2464 16.523 20.4527 16.523Z" fill="#FFB43F"/>
<path d="M10.9074 3.28136C9.28625 3.28136 7.66503 3.92002 6.42286 5.19758C3.93848 7.75268 3.93848 11.8669 6.42286 14.422L14.9748 23.2168C15.3362 23.5885 15.9508 24.1085 17.0621 24.1085C18.1734 24.1085 18.7143 23.6625 19.1476 23.2168L27.6996 14.422C30.1839 11.8669 30.1839 7.75268 27.6996 5.19758C25.2152 2.64247 21.2149 2.64247 18.7305 5.19758L17.0609 6.91471L15.3919 5.19758C14.1497 3.92002 12.5285 3.28136 10.9074 3.28136Z" fill="#F9D376"/>
<path d="M5.21629 12.8326C4.24925 12.8326 3.28216 13.2136 2.54118 13.9757C1.05919 15.4998 1.05919 17.954 2.54118 19.4782L7.64258 24.7245C7.85816 24.9462 8.22478 25.2564 8.88769 25.2564C9.55061 25.2564 9.87329 24.9903 10.1318 24.7245L15.2332 19.4782C16.7152 17.954 16.7152 15.4998 15.2332 13.9757C13.7512 12.4515 11.3649 12.4515 9.88296 13.9757L8.887 15L7.8914 13.9757C7.15041 13.2136 6.18332 12.8326 5.21629 12.8326Z" fill="#ED944A"/>
</svg>
