<svg width="31" height="30" viewBox="0 0 31 30" fill="none" xmlns="http://www.w3.org/2000/svg">
<path d="M2.45527 0.9375H10.2922C10.9414 0.9375 11.4594 1.47568 11.6268 2.10937L15.4669 16.6406C15.6344 17.2743 15.1071 17.8125 14.4578 17.8125H8.12971C7.48049 17.8125 7.02418 17.2547 6.79507 16.6406L1.54869 2.57812C1.17369 1.57296 1.80605 0.9375 2.45527 0.9375Z" fill="#F9D376"/>
<path d="M28.5411 0.9375H20.7042C20.055 0.9375 19.537 1.47568 19.3695 2.10937L15.5294 16.6406C15.3619 17.2743 15.8893 17.8125 16.5385 17.8125H22.8666C23.5159 17.8125 23.9722 17.2547 24.2013 16.6406L29.4477 2.57812C29.8227 1.57296 29.1903 0.9375 28.5411 0.9375Z" fill="#F9D376"/>
<path d="M15.5 9.90234C16.7581 9.90234 18.0038 10.1501 19.1661 10.6316C20.3284 11.113 21.3845 11.8187 22.2741 12.7083C23.1637 13.5979 23.8694 14.654 24.3508 15.8163C24.8323 16.9786 25.0801 18.2243 25.0801 19.4824C25.0801 20.7405 24.8323 21.9862 24.3508 23.1486C23.8694 24.3109 23.1637 25.367 22.2741 26.2566C21.3845 27.1462 20.3284 27.8518 19.1661 28.3333C18.0038 28.8147 16.7581 29.0625 15.5 29.0625C14.2419 29.0625 12.9962 28.8147 11.8339 28.3333C10.6716 27.8518 9.61545 27.1462 8.72586 26.2566C7.83627 25.367 7.13061 24.3109 6.64916 23.1486C6.16772 21.9862 5.91992 20.7405 5.91992 19.4824C5.91992 18.2243 6.16772 16.9786 6.64916 15.8163C7.13061 14.654 7.83627 13.5979 8.72586 12.7083C9.61545 11.8187 10.6716 11.113 11.8339 10.6316C12.9962 10.1501 14.2419 9.90234 15.5 9.90234Z" fill="#ED944A"/>
<path d="M18.8653 24.1432C18.3139 24.5457 16.1956 23.4982 15.5128 23.4997C14.8301 23.5024 12.7165 24.5584 12.1633 24.1583C11.61 23.7583 11.9517 21.4199 11.7393 20.7711C11.5268 20.1223 9.86832 18.4388 10.0778 17.789C10.2873 17.1392 12.6168 16.7416 13.1683 16.3391C13.7197 15.9365 14.8082 13.839 15.491 13.8374C16.1737 13.8347 17.2717 15.9285 17.825 16.3285C18.3782 16.7286 20.7095 17.1157 20.922 17.7645C21.1344 18.4133 19.4835 20.1043 19.274 20.7541C19.0645 21.4039 19.4168 23.7406 18.8653 24.1432Z" fill="white"/>
</svg>
