<svg width="31" height="30" viewBox="0 0 31 30" fill="none" xmlns="http://www.w3.org/2000/svg">
<path d="M14.1741 0.9375C17.5533 0.937498 20.7942 2.2799 23.1836 4.66938C25.5731 7.05887 26.9155 10.2997 26.9155 13.6789C26.9155 15.3522 26.586 17.009 25.9456 18.5549C25.3053 20.1008 24.3668 21.5054 23.1836 22.6885C22.0005 23.8717 20.5959 24.8102 19.05 25.4505C17.5042 26.0908 15.8473 26.4204 14.1741 26.4204C12.5008 26.4204 10.844 26.0908 9.29812 25.4505C7.75226 24.8102 6.34765 23.8717 5.1645 22.6885C3.98135 21.5054 3.04282 20.1008 2.4025 18.5549C1.76218 17.009 1.43262 15.3522 1.43262 13.6789C1.43262 10.2997 2.77502 7.05887 5.1645 4.66939C7.55399 2.2799 10.7948 0.937502 14.1741 0.9375Z" fill="#ED944A"/>
<path d="M14.1745 22.2675C16.4524 22.2675 18.6369 21.3627 20.2476 19.752C21.8582 18.1413 22.7631 15.9568 22.7631 13.6789C22.7631 12.5511 22.541 11.4342 22.1094 10.3922C21.6777 9.3502 21.0451 8.4034 20.2476 7.60588C19.4501 6.80835 18.5033 6.17572 17.4612 5.7441C16.4192 5.31248 15.3024 5.09033 14.1745 5.09033C13.0467 5.09033 11.9298 5.31248 10.8878 5.7441C9.8458 6.17572 8.899 6.80835 8.10147 7.60588C7.30395 8.4034 6.67132 9.3502 6.2397 10.3922C5.80808 11.4342 5.58594 12.5511 5.58594 13.6789C5.58594 15.9568 6.49081 18.1413 8.10148 19.752C9.71215 21.3627 11.8967 22.2675 14.1745 22.2675Z" fill="#F9D376"/>
<path d="M18.3652 24.0171H27.9188C28.8277 24.0171 29.5594 24.7488 29.5594 25.6577V27.4311C29.5594 28.34 28.8277 29.0718 27.9188 29.0718H18.3652C17.4563 29.0718 16.7246 28.34 16.7246 27.4311V25.6577C16.7246 24.7488 17.4563 24.0171 18.3652 24.0171Z" fill="#ED944A"/>
<path d="M18.3652 18.9624H27.9188C28.8277 18.9624 29.5594 19.6941 29.5594 20.603V22.3765C29.5594 23.2854 28.8277 24.0171 27.9188 24.0171H18.3652C17.4563 24.0171 16.7246 23.2854 16.7246 22.3765V20.603C16.7246 19.6941 17.4563 18.9624 18.3652 18.9624Z" fill="#FFCA3F"/>
<path d="M16.596 18.2812C16.2157 18.2812 15.8792 18.09 15.7686 17.8103L13.9777 13.267L12.1857 17.8103C12.0739 18.0953 11.7696 18.268 11.334 18.2812C10.9445 18.2724 10.6103 18.0652 10.5193 17.774L8.42414 11.1344C8.3112 10.7776 8.59585 10.4191 9.05913 10.3323C9.52241 10.2429 9.99029 10.4651 10.1032 10.821L11.4516 15.0925L13.1514 10.7847C13.2609 10.5049 13.5974 10.3137 13.9777 10.3137C14.358 10.3137 14.6945 10.5049 14.8052 10.7847L16.505 15.0925L17.8533 10.821C17.9663 10.4651 18.4319 10.2455 18.8963 10.3323C19.3596 10.4191 19.6442 10.7776 19.5324 11.1335L17.4373 17.7731C17.3463 18.0644 17.0121 18.2715 16.6225 18.2804C16.6122 18.2813 16.6041 18.2812 16.596 18.2812Z" fill="#FAFAFA"/>
<path d="M20.027 13.4124H18.2764C17.7993 13.4124 17.4121 13.1149 17.4121 12.7484C17.4121 12.3819 17.7993 12.0845 18.2764 12.0845H20.027C20.5041 12.0845 20.8913 12.3819 20.8913 12.7484C20.8913 13.1149 20.5041 13.4124 20.027 13.4124Z" fill="#FAFAFA"/>
<path d="M9.67737 13.4124H7.92682C7.44972 13.4124 7.0625 13.1149 7.0625 12.7484C7.0625 12.3819 7.44972 12.0845 7.92682 12.0845H9.67737C10.1545 12.0845 10.5417 12.3819 10.5417 12.7484C10.5417 13.1149 10.1545 13.4124 9.67737 13.4124Z" fill="#FAFAFA"/>
<path d="M20.0376 15.6253H17.8272C17.3501 15.6253 16.9629 15.3278 16.9629 14.9613C16.9629 14.5948 17.3501 14.2974 17.8272 14.2974H20.0376C20.5147 14.2974 20.9019 14.5948 20.9019 14.9613C20.9019 15.3278 20.5147 15.6253 20.0376 15.6253Z" fill="#FAFAFA"/>
<path d="M10.1372 15.6253H7.92682C7.44972 15.6253 7.0625 15.3278 7.0625 14.9613C7.0625 14.5948 7.44972 14.2974 7.92682 14.2974H10.1372C10.6143 14.2974 11.0015 14.5948 11.0015 14.9613C11.0015 15.3278 10.6143 15.6253 10.1372 15.6253Z" fill="#FAFAFA"/>
</svg>
