<svg width="31" height="30" viewBox="0 0 31 30" fill="none" xmlns="http://www.w3.org/2000/svg">
<path d="M4.95312 7.32568H26.0469C27.3453 7.32568 28.3906 8.37099 28.3906 9.66943V18.7825C28.3906 20.0809 27.3453 21.1262 26.0469 21.1262H4.95312C3.65469 21.1262 2.60938 20.0809 2.60938 18.7825V9.66943C2.60938 8.37099 3.65469 7.32568 4.95312 7.32568Z" fill="#FF8645"/>
<path d="M7.0625 24.4505V3.28125C7.0625 1.98289 8.10786 0.9375 9.40631 0.9375H21.5938C22.8922 0.9375 23.9375 1.98289 23.9375 3.28125V24.4505H7.0625Z" fill="#ED944A"/>
<path d="M7.0625 24.4505V5.31052C9.38168 5.17144 11.1974 3.26076 11.2181 0.9375H19.7819C19.8023 3.26076 21.6183 5.17144 23.9375 5.31052V24.4505H7.0625Z" fill="#F9D376"/>
<path d="M16.5647 8.85993C14.3708 8.27201 12.1157 9.57399 11.5279 11.7679C10.94 13.9619 12.242 16.2169 14.4359 16.8048C16.6297 17.3924 18.8845 16.0904 19.4723 13.8966C20.0636 11.6898 18.7508 9.44589 16.5647 8.85993Z" fill="white"/>
<path d="M2.60938 12.3154V26.7184C2.60938 28.0169 3.65469 29.0622 4.95312 29.0622H26.0469C27.3453 29.0622 28.3906 28.0169 28.3906 26.7184V12.3154L15.2656 20.8504L2.60938 12.3154Z" fill="#FFB43F"/>
</svg>
