<svg width="31" height="30" viewBox="0 0 31 30" fill="none" xmlns="http://www.w3.org/2000/svg">
<g clip-path="url(#clip0_771_1509)">
<path d="M26.3937 1.40625C26.8147 1.40625 27.156 1.86535 27.156 2.34068C27.156 2.49727 27.1469 2.62371 27.1298 2.72566C27.0929 2.89912 27.0563 3.02133 27.0187 3.10558L22.4537 15.8183L25.6827 21.411L23.9512 22.4107L23.9176 22.3524L23.902 22.3615L21.4821 18.1701C21.0928 18.511 20.583 18.7177 20.0248 18.7177C19.4384 18.7177 18.9053 18.4895 18.5093 18.1172L16.0021 22.4599L14.2707 21.4602L14.292 21.4233L14.2707 21.411L17.4625 15.8825L12.8834 3.13017C12.8458 3.04592 12.8091 2.92371 12.7723 2.75025C12.7552 2.6483 12.7461 2.52186 12.7461 2.36527C12.7461 1.88994 13.0874 1.43084 13.5084 1.43084C13.7518 1.43084 14.0261 1.66917 14.181 1.89402L14.1819 1.89353L14.1888 1.90558C14.2197 1.95166 14.2455 1.99691 14.2649 2.0393L19.944 12.022L25.6372 2.01471C25.6566 1.97232 25.6824 1.92707 25.7133 1.88099L25.7202 1.86894L25.7211 1.86943C25.876 1.64458 26.1503 1.40625 26.3937 1.40625Z" fill="#BBBBBB"/>
<path d="M8.36889 1.65234C9.02078 1.65234 9.54922 2.18079 9.54922 2.83267C9.54922 3.48456 9.02078 4.013 8.36889 4.013H5.22133C4.62379 4.013 4.13936 4.49743 4.13936 5.09497V5.48841C4.13936 6.08595 4.62379 6.57038 5.22133 6.57038H8.36889C9.02078 6.57038 9.54922 7.09882 9.54922 7.7507C9.54922 8.40259 9.02078 8.93103 8.36889 8.93103H5.22133C4.62379 8.93103 4.13936 9.41546 4.13936 10.013V10.4556C4.13936 11.0532 4.62379 11.5376 5.22133 11.5376H8.36889C9.02078 11.5376 9.54922 12.066 9.54922 12.7179C9.54922 13.3698 9.02078 13.8982 8.36889 13.8982H5.22133C4.62379 13.8982 4.13936 14.3827 4.13936 14.9802V15.4228C4.13936 16.0204 4.62379 16.5048 5.22133 16.5048H8.36889C9.02078 16.5048 9.54922 17.0332 9.54922 17.6851C9.54922 18.337 9.02078 18.8655 8.36889 18.8655H5.22133C4.73243 18.8655 4.33608 19.2618 4.33608 19.7507V26.8819C4.33608 27.9411 3.47734 28.7999 2.41804 28.7999C1.35874 28.7999 0.5 27.9411 0.5 26.8819V4.60316C0.5 2.97347 1.82114 1.65234 3.45083 1.65234H8.36889Z" fill="#F9D376"/>
<path d="M13.926 19.8486C16.4248 19.8486 18.4506 21.8744 18.4506 24.3732C18.4506 26.8721 16.4248 28.8978 13.926 28.8978C11.4271 28.8978 9.40137 26.8721 9.40137 24.3732C9.40137 21.8744 11.4271 19.8486 13.926 19.8486ZM13.926 21.9142C12.5951 21.9142 11.5161 22.9931 11.5161 24.324C11.5161 25.655 12.5951 26.7339 13.926 26.7339C15.2569 26.7339 16.3358 25.655 16.3358 24.324C16.3358 22.9931 15.2569 21.9142 13.926 21.9142Z" fill="#ED944A"/>
<path d="M25.9758 19.8486C28.4746 19.8486 30.5004 21.8744 30.5004 24.3732C30.5004 26.8721 28.4746 28.8978 25.9758 28.8978C23.4769 28.8978 21.4512 26.8721 21.4512 24.3732C21.4512 21.8744 23.4769 19.8486 25.9758 19.8486ZM25.9758 21.9142C24.6449 21.9142 23.5659 22.9931 23.5659 24.324C23.5659 25.655 24.6449 26.7339 25.9758 26.7339C27.3067 26.7339 28.3856 25.655 28.3856 24.324C28.3856 22.9931 27.3067 21.9142 25.9758 21.9142Z" fill="#ED944A"/>
<path d="M19.9017 16.8981C20.377 16.8981 20.7623 16.5127 20.7623 16.0374C20.7623 15.5621 20.377 15.1768 19.9017 15.1768C19.4263 15.1768 19.041 15.5621 19.041 16.0374C19.041 16.5127 19.4263 16.8981 19.9017 16.8981Z" fill="#787878"/>
</g>
<defs>
<clipPath id="clip0_771_1509">
<rect width="30" height="30" fill="white" transform="translate(0.5)"/>
</clipPath>
</defs>
</svg>
