<svg width="31" height="30" viewBox="0 0 31 30" fill="none" xmlns="http://www.w3.org/2000/svg">
<path d="M24.1644 11.6655C27.6657 11.6748 30.4992 14.5158 30.4993 18.0171C30.4994 21.5253 27.6555 24.3693 24.1474 24.3692C20.6394 24.3691 17.7958 21.5251 17.7959 18.0171C17.796 14.5093 20.6396 11.6657 24.1474 11.6655C24.153 11.6655 24.1644 11.6655 24.1644 11.6655ZM24.1474 14.582C22.2504 14.5823 20.7128 16.1202 20.7128 18.0171C20.7128 19.9141 22.2504 21.452 24.1474 21.4522C26.0445 21.4522 27.5824 19.9143 27.5824 18.0171C27.5824 16.12 26.0445 14.582 24.1474 14.582Z" fill="#ED944A"/>
<path d="M2.99996 8.93066C1.61498 8.93066 0.5 10.0457 0.5 11.4307V18.9071C0.5 24.9189 5.33968 26.6209 11.3514 26.6209C17.3631 26.6209 22.2028 24.9189 22.2028 18.9071V11.4307C22.2028 10.0457 21.0878 8.93066 19.7028 8.93066H2.99996Z" fill="#F9D376"/>
<path d="M11.8177 13.5537C10.9059 13.5537 10.6537 14.3054 10.4754 15.1997L9.97262 17.7236L8.81976 18.0808C7.94882 18.3507 7.17383 18.5113 7.17383 19.4231C7.17383 20.335 7.90795 20.6204 8.81976 20.6204C8.81976 20.6204 11.3487 20.6204 11.369 20.6204C12.2809 20.6204 13.015 19.8862 13.015 18.9744V15.1997C13.015 14.2878 12.7295 13.5537 11.8177 13.5537Z" fill="#59586E"/>
<path d="M22.3121 27.9688C22.3121 29.0942 21.4062 30.0001 20.2809 30.0001H2.53122C1.40592 30.0001 0.5 29.0942 0.5 27.9688C0.5 25.3398 22.3121 25.3398 22.3121 27.9688Z" fill="#ED944A"/>
<path d="M6.17038 2.6483e-06C5.84499 -0.000653858 5.31932 0.120589 4.71432 0.542573C4.10932 0.964559 3.4502 1.86929 3.4502 3.03028C3.4502 3.98816 3.96075 4.72059 4.26957 5.09168C4.44289 5.29994 4.31863 5.49418 4.24458 5.57025C4.12511 5.69298 3.96949 5.84542 3.79529 6.02918C3.32124 6.53028 3.34272 7.32068 3.84327 7.79531C4.34409 8.27109 5.13588 8.25043 5.61121 7.74917C5.7889 7.56172 6.08435 7.30575 6.38814 6.9187C6.69192 6.53166 7.01005 5.93959 7.01005 5.23378C7.01005 4.25939 6.41356 3.75725 6.19252 3.49165C5.97148 3.22604 5.95077 3.15329 5.95077 3.03028C5.95077 2.56075 6.37522 2.48033 6.37522 2.48033C7.05409 2.36091 7.50817 1.71446 7.39021 1.03532C7.28665 0.441095 6.77352 0.00558853 6.17038 2.6483e-06Z" fill="#F9D376" fill-opacity="0.3"/>
<path d="M18.0141 2.6483e-06C17.6887 -0.000653858 17.1631 0.120589 16.5581 0.542573C15.9531 0.964559 15.2939 1.86929 15.2939 3.03028C15.2939 3.98816 15.8045 4.72059 16.1133 5.09168C16.2866 5.29994 16.1624 5.49418 16.0883 5.57025C15.9689 5.69298 15.8132 5.84542 15.639 6.02918C15.165 6.53028 15.1865 7.32068 15.687 7.79531C16.1878 8.27109 16.9796 8.25043 17.455 7.74917C17.6327 7.56172 17.9281 7.30575 18.2319 6.9187C18.5357 6.53166 18.8538 5.93959 18.8538 5.23378C18.8538 4.25939 18.2573 3.75725 18.0363 3.49165C17.8152 3.22604 17.7945 3.15329 17.7945 3.03028C17.7945 2.56075 18.219 2.48033 18.219 2.48033C18.8978 2.36091 19.3519 1.71446 19.234 1.03532C19.1304 0.441095 18.6173 0.00558853 18.0141 2.6483e-06Z" fill="#F9D376" fill-opacity="0.3"/>
<path d="M12.0923 2.6483e-06C11.7669 -0.000653858 11.2412 0.120589 10.6362 0.542573C10.0312 0.964559 9.37207 1.86929 9.37207 3.03028C9.37207 3.98816 9.88262 4.72059 10.1914 5.09168C10.3648 5.29994 10.2405 5.49418 10.1665 5.57025C10.047 5.69298 9.89137 5.84542 9.71717 6.02918C9.24312 6.53028 9.26459 7.32068 9.76515 7.79531C10.266 8.27109 11.0578 8.25043 11.5331 7.74917C11.7108 7.56172 12.0062 7.30575 12.31 6.9187C12.6138 6.53166 12.9319 5.93959 12.9319 5.23378C12.9319 4.25939 12.3354 3.75725 12.1144 3.49165C11.8934 3.22604 11.8726 3.15329 11.8726 3.03028C11.8726 2.56075 12.2971 2.48033 12.2971 2.48033C12.976 2.36091 13.43 1.71446 13.3121 1.03532C13.2085 0.441095 12.6954 0.00558853 12.0923 2.6483e-06Z" fill="#F9D376" fill-opacity="0.3"/>
</svg>
