<svg width="31" height="32" viewBox="0 0 31 32" fill="none" xmlns="http://www.w3.org/2000/svg">
<path d="M9.969 1.89258C9.23227 2.13416 6.40678 2.89736 5.62875 3.2872C4.38247 3.91166 3.74921 4.46364 3.01082 6.38458L0.799805 13.4822L5.87105 17.2735V26.2421L5.34428 29.1697C5.11147 30.6405 5.99221 31.8036 7.45138 31.8036H23.5489C25.0081 31.8036 25.8888 30.6405 25.656 29.1697L25.1292 26.2421V17.2735L30.2005 13.4822L27.9895 6.38458C27.2511 4.46364 26.6178 3.91166 25.3715 3.2872C24.5935 2.89736 21.768 2.13416 21.0313 1.89258H9.969Z" fill="#F9D376"/>
<path d="M11.5493 0.575716C14.1828 -0.00680317 16.8164 0.154097 19.4499 0.575716C20.0006 2.90729 19.5318 4.75938 19.0384 6.60072H12.1414C12.1414 6.60072 10.8258 1.82886 11.5493 0.575716Z" fill="#ED944A"/>
<path d="M11.5493 0.575684C10.8355 0.697906 9.82031 1.09516 9.82031 1.89262C9.82031 3.84783 11.3331 7.99544 12.321 8.5658C13.0676 8.99687 13.7696 8.17741 13.7696 8.17741L14.5145 7.36461C14.8087 7.04365 15.0231 6.75295 15.4996 6.75295C15.9761 6.75295 16.1906 7.04365 16.4847 7.36461L17.2296 8.17741C17.2296 8.17741 17.9317 8.99687 18.6783 8.5658C19.6662 7.99544 21.8369 4.17507 21.1789 1.89262C20.9782 1.19651 20.1637 0.697906 19.4499 0.575684C19.4499 1.89262 19.1275 5.39813 15.4996 6.37022C11.8718 5.39813 11.5493 1.89262 11.5493 0.575684Z" fill="white"/>
<path d="M15.5148 11.0459C15.2062 11.0459 14.9561 11.2961 14.9561 11.6046C14.9561 11.9132 15.2062 12.1634 15.5148 12.1634C15.8234 12.1634 16.0735 11.9132 16.0735 11.6046C16.0735 11.2961 15.8234 11.0459 15.5148 11.0459Z" fill="#787878"/>
<path d="M15.5148 8.97412C15.2062 8.97412 14.9561 9.22427 14.9561 9.53285C14.9561 9.84143 15.2062 10.0916 15.5148 10.0916C15.8234 10.0916 16.0735 9.84143 16.0735 9.53285C16.0735 9.22427 15.8234 8.97412 15.5148 8.97412Z" fill="#787878"/>
<path d="M0.799661 13.4824L0.603149 14.1131C0.322392 15.1449 0.581199 15.9059 1.79663 16.2202L5.87091 17.2738V14.841L0.799661 13.4824Z" fill="#ED944A"/>
<path d="M30.2002 13.4824L30.3967 14.1131C30.6774 15.1449 30.4186 15.9059 29.2032 16.2202L25.1289 17.2738V14.841L30.2002 13.4824Z" fill="#ED944A"/>
</svg>
