<svg width="31" height="30" viewBox="0 0 31 30" fill="none" xmlns="http://www.w3.org/2000/svg">
<path d="M2.99363 13.1655H6.54676C7.92823 13.1655 9.04038 14.2779 9.04038 15.6595V25.5109C9.04038 26.8926 7.92823 28.0049 6.54676 28.0049H2.99363C1.61216 28.0049 0.5 26.8926 0.5 25.5109V15.6595C0.5 14.2779 1.61216 13.1655 2.99363 13.1655Z" fill="#787878"/>
<path d="M24.1328 14.1974C21.1107 19.9696 22.0374 22.356 24.1328 26.9724L28.332 28.5219C28.5931 28.6352 28.8327 28.6931 29.0494 28.7051C29.9883 28.7572 30.4998 27.9499 30.4998 27.0669V14.1029C30.4998 13.22 29.9883 12.4127 29.0494 12.4648C28.8327 12.4768 28.5931 12.5348 28.332 12.6479L24.1328 14.1974Z" fill="#787878"/>
<path d="M6.48484 11.1699H21.8518C23.2333 11.1699 24.3454 12.2823 24.3454 13.6639V27.5057C24.3454 28.8874 23.2333 29.9997 21.8518 29.9997H6.48484C5.10337 29.9997 3.99121 28.8874 3.99121 27.5057V13.6639C3.99121 12.2823 5.10337 11.1699 6.48484 11.1699Z" fill="#787878"/>
<path d="M15.9007 15.3252C16.2631 15.3252 16.6107 15.4692 16.867 15.7255C17.1233 15.9818 17.2672 16.3295 17.2672 16.6919C17.2672 17.0544 17.1233 17.4021 16.867 17.6584C16.6107 17.9147 16.2631 18.0587 15.9007 18.0587C15.5383 18.0587 15.1907 17.9147 14.9344 17.6584C14.6782 17.4021 14.5342 17.0544 14.5342 16.6919C14.5342 16.3295 14.6782 15.9818 14.9344 15.7255C15.1907 15.4692 15.5383 15.3252 15.9007 15.3252Z" fill="#ED944A"/>
<path d="M20.221 15.3252C20.5834 15.3252 20.931 15.4692 21.1873 15.7255C21.4436 15.9818 21.5875 16.3295 21.5875 16.6919C21.5875 17.0544 21.4436 17.4021 21.1873 17.6584C20.931 17.9147 20.5834 18.0587 20.221 18.0587C19.8586 18.0587 19.511 17.9147 19.2547 17.6584C18.9985 17.4021 18.8545 17.0544 18.8545 16.6919C18.8545 16.3295 18.9985 15.9818 19.2547 15.7255C19.511 15.4692 19.8586 15.3252 20.221 15.3252Z" fill="#ED944A"/>
<path d="M13.2212 25.1249C13.2212 25.8158 12.6651 26.3719 11.9744 26.3719H7.66479C6.97405 26.3719 6.41797 25.8158 6.41797 25.1249C6.41797 24.4341 6.97405 23.8779 7.66479 23.8779H11.9744C12.6651 23.8779 13.2212 24.4341 13.2212 25.1249Z" fill="white"/>
<path d="M19.4708 0C18.6362 -1.36165e-07 17.8097 0.164416 17.0386 0.483862C16.2675 0.803308 15.5669 1.27153 14.9767 1.86179C14.3866 2.45205 13.9184 3.15279 13.599 3.924C13.2796 4.69521 13.1152 5.52179 13.1152 6.35654C13.1152 7.19129 13.2796 8.01787 13.599 8.78908C13.9184 9.56029 14.3866 10.261 14.9767 10.8513C15.5669 11.4416 16.2675 11.9098 17.0386 12.2292C17.8097 12.5487 18.6362 12.7131 19.4708 12.7131C21.1564 12.7131 22.773 12.0434 23.9648 10.8513C25.1567 9.65921 25.8263 8.0424 25.8263 6.35654C25.8263 5.52179 25.662 4.69521 25.3426 3.924C25.0232 3.15279 24.555 2.45205 23.9648 1.86179C23.3747 1.27153 22.674 0.803309 21.903 0.483863C21.1319 0.164417 20.3054 -1.23786e-08 19.4708 0Z" fill="#F9D376"/>
<path d="M7.81289 2.10693C6.40667 2.10693 5.05805 2.66564 4.06371 3.66014C3.06936 4.65464 2.51074 6.00347 2.51074 7.4099C2.51074 8.81634 3.06936 10.1652 4.06371 11.1597C5.05805 12.1542 6.40667 12.7129 7.81289 12.7129C8.50918 12.7129 9.19865 12.5757 9.84193 12.3092C10.4852 12.0427 11.0697 11.6521 11.5621 11.1597C12.0544 10.6672 12.445 10.0826 12.7114 9.43926C12.9779 8.79588 13.115 8.1063 13.115 7.4099C13.115 6.71351 12.9779 6.02393 12.7114 5.38054C12.445 4.73716 12.0544 4.15256 11.5621 3.66014C11.0697 3.16771 10.4852 2.7771 9.84193 2.5106C9.19865 2.2441 8.50918 2.10693 7.81289 2.10693Z" fill="#ED944A"/>
<path d="M7.81228 9.37322C8.07002 9.37322 8.32524 9.32245 8.56337 9.2238C8.80149 9.12515 9.01785 8.98056 9.2001 8.79828C9.38236 8.616 9.52692 8.3996 9.62556 8.16144C9.72419 7.92328 9.77496 7.66803 9.77496 7.41024C9.77496 7.15246 9.72419 6.8972 9.62556 6.65904C9.52692 6.42088 9.38236 6.20449 9.2001 6.02221C9.01785 5.83993 8.80149 5.69534 8.56337 5.59669C8.32524 5.49804 8.07002 5.44727 7.81228 5.44727C7.29175 5.44727 6.79254 5.65408 6.42446 6.02221C6.05639 6.39034 5.84961 6.88963 5.84961 7.41024C5.84961 7.93086 6.05639 8.43015 6.42446 8.79828C6.79254 9.16641 7.29175 9.37322 7.81228 9.37322Z" fill="white"/>
<path d="M19.4708 8.70936C19.7797 8.70936 20.0856 8.6485 20.3711 8.53026C20.6565 8.41201 20.9159 8.23869 21.1343 8.02019C21.3528 7.8017 21.5261 7.54231 21.6443 7.25683C21.7625 6.97136 21.8234 6.66539 21.8234 6.35639C21.8234 6.04739 21.7625 5.74142 21.6443 5.45595C21.5261 5.17047 21.3528 4.91108 21.1343 4.69259C20.9159 4.47409 20.6565 4.30078 20.3711 4.18253C20.0856 4.06428 19.7797 4.00342 19.4708 4.00342C19.1618 4.00342 18.8559 4.06428 18.5705 4.18253C18.285 4.30078 18.0257 4.47409 17.8072 4.69259C17.5888 4.91108 17.4155 5.17047 17.2972 5.45595C17.179 5.74142 17.1182 6.04739 17.1182 6.35639C17.1182 6.66539 17.179 6.97136 17.2972 7.25683C17.4155 7.54231 17.5888 7.8017 17.8072 8.02019C18.0257 8.23869 18.285 8.41201 18.5705 8.53026C18.8559 8.6485 19.1618 8.70936 19.4708 8.70936Z" fill="white"/>
</svg>
