<svg width="31" height="30" viewBox="0 0 31 30" fill="none" xmlns="http://www.w3.org/2000/svg">
<path d="M9.47348 17.9087L26.4442 16.627C27.8247 16.5228 28.6493 15.4804 28.9432 14.1268L30.4426 7.22044C30.7364 5.8669 29.8903 4.22021 27.9436 4.22021H7.9741C6.58969 4.22021 5.23961 5.3555 5.47516 6.72041L6.97453 15.4086C7.21008 16.7735 8.09299 18.013 9.47348 17.9087Z" fill="#F9D376"/>
<path d="M2.37421 0C1.33911 0 0.5 0.339493 0.5 1.37511C0.5 2.41072 1.37561 2.97765 2.37421 3.25024L4.206 3.75028L6.63449 21.4217C6.76997 22.3418 7.55891 23.0235 8.48841 23.0237H27.5902C28.6253 23.0237 29.4644 22.6262 29.4644 21.5905C29.4644 20.5549 28.6236 20.3326 27.5902 20.2735L10.1062 19.2734L7.67955 1.60199C7.54408 0.681954 6.75514 0.000226789 5.82563 0H2.37421Z" fill="#ED944A"/>
<path d="M11.5926 24.3193C10.8396 24.3194 10.1176 24.6188 9.58526 25.1515C9.05292 25.6842 8.75387 26.4066 8.75391 27.1599C8.75388 27.9132 9.05293 28.6356 9.58527 29.1683C10.1176 29.701 10.8397 30.0003 11.5926 30.0004C11.9654 30.0004 12.3346 29.927 12.6791 29.7842C13.0235 29.6415 13.3365 29.4323 13.6002 29.1685C13.8638 28.9047 14.0729 28.5916 14.2156 28.2469C14.3583 27.9023 14.4317 27.5329 14.4317 27.1599C14.4317 26.7869 14.3583 26.4175 14.2156 26.0729C14.0729 25.7282 13.8638 25.4151 13.6002 25.1513C13.3365 24.8875 13.0235 24.6783 12.6791 24.5355C12.3346 24.3928 11.9654 24.3193 11.5926 24.3193ZM23.0877 24.3193C22.3348 24.3194 21.6128 24.6188 21.0804 25.1515C20.5481 25.6842 20.249 26.4066 20.2491 27.1599C20.249 27.9132 20.5481 28.6356 21.0804 29.1683C21.6128 29.701 22.3348 30.0003 23.0877 30.0004C23.4606 30.0004 23.8298 29.927 24.1742 29.7842C24.5187 29.6415 24.8317 29.4323 25.0953 29.1685C25.359 28.9047 25.5681 28.5916 25.7108 28.2469C25.8534 27.9023 25.9269 27.5329 25.9269 27.1599C25.9269 26.7869 25.8534 26.4175 25.7108 26.0729C25.5681 25.7282 25.359 25.4151 25.0953 25.1513C24.8317 24.8875 24.5187 24.6783 24.1742 24.5355C23.8298 24.3928 23.4606 24.3193 23.0877 24.3193Z" fill="#787878"/>
</svg>
