<svg width="31" height="30" viewBox="0 0 31 30" fill="none" xmlns="http://www.w3.org/2000/svg">
<path d="M5.49996 27.5243H25.4996C26.8846 27.5243 27.9996 26.4092 27.9996 25.0241V10.052C27.9996 2.95026 3 2.36719 3 10.052V25.0241C3 26.4092 4.11498 27.5243 5.49996 27.5243Z" fill="#F9D376"/>
<path d="M14.2434 0.339482L1.74994 7.55265C0.554842 8.24306 0.145254 9.77144 0.83492 10.9671C1.52513 12.1637 2.05485 12.5737 3.2509 11.8827L14.391 6.02808C15.1838 5.5703 15.9387 5.64021 16.6398 6.04509L27.7505 11.8827C28.9461 12.5724 29.4744 12.1625 30.1645 10.9671C30.8544 9.77183 30.4455 8.24356 29.251 7.55265L16.7497 0.334598C16.5947 0.252765 16.1256 0.00647304 15.5002 8.98766e-05C14.9351 -0.00567773 14.3803 0.267814 14.2434 0.339482Z" fill="#ED944A"/>
<path d="M10.0845 13.0142C7.73413 13.0142 5.8418 14.9067 5.8418 17.2574V27.5032H14.3273V17.2574C14.3273 14.9067 12.4349 13.0142 10.0845 13.0142Z" fill="#787878"/>
<path d="M1.74998 25.4995H29.2495C29.942 25.4995 30.4995 26.0571 30.4995 26.7496V28.7499C30.4995 29.4424 29.942 30 29.2495 30H1.74998C1.05749 30 0.5 29.4424 0.5 28.7499V26.7496C0.5 26.0571 1.05749 25.4995 1.74998 25.4995Z" fill="#FFB43F"/>
<path d="M17.9062 14.3423H24.1249C24.8174 14.3423 25.3749 14.8998 25.3749 15.5924V20.6555C25.3749 21.348 24.8174 21.9056 24.1249 21.9056H17.9062C17.2137 21.9056 16.6562 21.348 16.6562 20.6555V15.5924C16.6562 14.8998 17.2137 14.3423 17.9062 14.3423Z" fill="#ED944A"/>
</svg>
