<svg width="31" height="30" viewBox="0 0 31 30" fill="none" xmlns="http://www.w3.org/2000/svg">
<path d="M6.84693 28.153L7.34693 21.5458C7.42415 20.5254 6.5232 19.6987 5.5 19.6987C4.47679 19.6987 3.57585 20.5254 3.65306 21.5458L4.15306 28.153C4.23028 29.1733 4.47679 30 5.5 30C6.5232 30 6.76971 29.1733 6.84693 28.153Z" fill="#787878"/>
<path d="M26.8469 28.153L27.3469 21.5458C27.4241 20.5254 26.5232 19.6987 25.5 19.6987C24.4768 19.6987 23.5758 20.5254 23.6531 21.5458L24.1531 28.153C24.2303 29.1733 24.4768 30 25.5 30C26.5232 30 26.7697 29.1733 26.8469 28.153Z" fill="#787878"/>
<path d="M3 18.6709H28C29.385 18.6709 30.5 19.786 30.5 21.1711V22.627C30.5 24.0121 29.385 25.1272 28 25.1272H3C1.615 25.1272 0.5 24.0121 0.5 22.627V21.1711C0.5 19.786 1.615 18.6709 3 18.6709Z" fill="#F9D376"/>
<path d="M3.81641 18.668H8.74341C9.43591 18.668 9.99341 18.1104 9.99341 17.4179V1.25011C9.99341 0.557547 9.43591 0 8.74341 0H3.81641C3.12391 0 2.56641 0.557547 2.56641 1.25011V17.4179C2.56641 18.1104 3.12391 18.668 3.81641 18.668Z" fill="#ED944A"/>
<path d="M11.2432 0H16.1702C16.8627 0 17.4202 0.557547 17.4202 1.25011V17.4179C17.4202 18.1104 16.8627 18.668 16.1702 18.668H11.2432C10.5507 18.668 9.99316 18.1104 9.99316 17.4179V1.25011C9.99316 0.557547 10.5507 0 11.2432 0Z" fill="#F9D376"/>
<path d="M18.3121 1.2689L22.8921 0.0416068C23.5358 -0.130892 24.1929 0.24851 24.3654 0.892283L28.392 15.9212C28.5645 16.5649 28.1851 17.2221 27.5414 17.3946L22.9615 18.6219C22.3177 18.7944 21.6606 18.415 21.4882 17.7712L17.4615 2.74232C17.289 2.09854 17.6684 1.4414 18.3121 1.2689Z" fill="#ED944A"/>
<path d="M2.56641 2.98975V6.67756H9.99365V2.98975H2.56641Z" fill="white"/>
</svg>
