<svg width="31" height="30" viewBox="0 0 31 30" fill="none" xmlns="http://www.w3.org/2000/svg">
<g clip-path="url(#clip0_771_1583)">
<path d="M30.468 17.9136C30.468 24.7765 24.5098 29.0463 15.7881 28.9679C6.87048 29.1247 0.775114 25.1264 0.500725 18.2272C0.422328 9.50531 6.71368 4.35056 15.4549 3.93896C23.9629 3.93896 31.0363 10.4461 30.468 17.9136Z" fill="#F9D376"/>
<path d="M29.5863 6.84116C29.5863 10.0751 27.4804 11.6823 24.8825 11.6823C22.2846 11.6823 20.1787 9.51485 20.1787 6.84116C20.1787 4.16747 22.2846 2 24.8825 2C27.4804 2 29.5863 4.19518 29.5863 6.84116Z" fill="#F9D376"/>
<path d="M10.6925 6.70382C10.6925 9.2801 8.60407 11.3686 6.02787 11.3686C3.53888 11.643 1.26541 10.1926 1.36341 6.72342C1.36341 4.14714 3.45167 2.03906 6.02787 2.03906C8.60407 2.03906 10.6925 4.12754 10.6925 6.70382Z" fill="#F9D376"/>
<path d="M15.4525 15.3257C15.4941 15.3249 15.5352 15.3245 15.578 15.3237C16.2008 15.3233 16.7049 15.5201 17.1584 15.9486C17.2948 16.0971 17.3921 16.2555 17.481 16.4354C17.501 16.4742 17.501 16.4742 17.5214 16.5134C17.6629 16.8286 17.632 17.1951 17.5218 17.5158C17.3086 18.0171 16.9722 18.3378 16.4768 18.5589C16.3835 18.5914 16.3835 18.5914 16.2659 18.5914C16.2796 19.2049 16.3294 19.7686 16.7696 20.2366C17.0659 20.5153 17.4062 20.6443 17.8107 20.6384C18.2333 20.6031 18.6178 20.4459 18.9314 20.1594C19.0129 20.0418 19.0792 19.9156 19.1478 19.7901C19.2614 19.5894 19.3865 19.442 19.5978 19.3362C19.7898 19.3154 19.9443 19.3143 20.1195 19.4001C20.4491 19.6914 20.4491 19.6914 20.4695 19.9062C20.4817 20.4115 20.2869 20.6243 19.9505 20.9826C19.9047 21.0363 19.8588 21.0904 19.8133 21.1445C19.3677 21.6502 18.8326 21.9312 18.1564 21.9967C17.3364 22.0441 16.5254 21.8536 15.8739 21.3354C15.7638 21.2354 15.6607 21.1316 15.5603 21.0218C15.5344 20.9959 15.5086 20.97 15.4819 20.9434C15.467 20.9626 15.4521 20.9814 15.4372 21.001C14.981 21.5565 14.3608 21.8058 13.6788 21.9626C13.6482 21.9704 13.618 21.9779 13.5863 21.9857C12.9074 22.0919 12.1845 21.9818 11.6013 21.6098C11.1736 21.2907 10.6146 20.7423 10.5037 20.1986C10.4829 19.9497 10.5159 19.7784 10.6605 19.5714C10.8126 19.4111 10.958 19.3315 11.1799 19.3241C11.3629 19.328 11.5052 19.3656 11.6405 19.493C11.7294 19.6181 11.8027 19.7502 11.8757 19.885C12.0983 20.2637 12.4033 20.4573 12.8164 20.5906C13.23 20.6721 13.5945 20.6361 13.9661 20.4201C14.3354 20.1567 14.5545 19.8129 14.6442 19.3684C14.678 19.1108 14.6866 18.8505 14.6979 18.5914C14.6764 18.5859 14.6552 18.58 14.6333 18.5742C14.166 18.435 13.7901 18.1343 13.5467 17.7122C13.3597 17.3441 13.3084 16.9917 13.4291 16.595C13.6298 16.0383 14.0006 15.7291 14.5204 15.4731C14.8363 15.3437 15.1142 15.3245 15.4525 15.3257Z" fill="#1E1E1E" fill-opacity="0.86"/>
<path d="M26.1826 17.2973C26.2211 17.3165 26.2599 17.3353 26.2995 17.3549C26.9556 17.7073 27.3837 18.2604 27.5981 18.9699C27.7518 19.6195 27.6224 20.2525 27.317 20.8327C26.9784 21.376 26.4657 21.7758 25.8416 21.9362C25.1729 22.0577 24.4642 22.0134 23.886 21.6386C23.3498 21.2478 22.9656 20.7241 22.8316 20.0679C22.732 19.3462 22.8531 18.6877 23.2835 18.0875C23.9311 17.2549 25.1839 16.781 26.1826 17.2973Z" fill="#ED944A"/>
<path d="M7.13304 17.5322C7.71122 17.9806 8.08988 18.5647 8.1914 19.2962C8.25451 19.9794 8.0546 20.6051 7.64733 21.1605C7.28866 21.5894 6.78379 21.8763 6.23148 21.9618C5.75718 21.9994 5.25465 22.0206 4.82033 21.805C4.78505 21.7893 4.74978 21.7736 4.71332 21.7575C4.03323 21.4263 3.66868 20.8473 3.41899 20.1554C3.34608 19.914 3.36097 19.6635 3.36999 19.4138C3.37077 19.3805 3.37156 19.3475 3.37195 19.313C3.3986 18.8426 3.60675 18.4173 3.87957 18.0418C3.89721 18.0171 3.91485 17.992 3.93288 17.9665C4.69215 16.9908 6.14132 16.8693 7.13304 17.5322Z" fill="#ED944A"/>
<path d="M22.851 13.3385C22.8851 13.3617 22.8851 13.3617 22.9203 13.3856C23.3449 13.7039 23.5142 14.2088 23.5957 14.7105C23.6561 15.2178 23.5138 15.7544 23.2037 16.1609C22.9411 16.4827 22.5664 16.7399 22.1454 16.7881C21.6691 16.8246 21.2756 16.7234 20.891 16.4353C20.6566 16.2213 20.5018 15.9825 20.3815 15.6905C20.3689 15.6623 20.3564 15.6341 20.3434 15.6047C20.1811 15.1723 20.2043 14.6082 20.374 14.1837C20.3893 14.1507 20.405 14.1174 20.4206 14.0833C20.4344 14.0527 20.4481 14.0218 20.4622 13.99C20.6966 13.5216 21.0408 13.2527 21.5182 13.0641C21.9905 12.9442 22.4629 13.0508 22.851 13.3385Z" fill="#1E1E1E" fill-opacity="0.86"/>
<path d="M9.81284 13.2356C9.89123 13.2924 9.96257 13.3524 10.0339 13.4175C10.0574 13.4363 10.0806 13.4551 10.1045 13.4743C10.4071 13.7397 10.6325 14.2081 10.6697 14.6064C10.6991 15.2328 10.6239 15.7314 10.2299 16.2398C9.90966 16.586 9.53884 16.7569 9.07355 16.7973C8.63296 16.8141 8.23902 16.6503 7.90975 16.3602C7.49738 15.9329 7.35195 15.3935 7.35156 14.8153C7.36724 14.2599 7.60714 13.7883 8.00539 13.4053C8.52673 12.9639 9.21584 12.8918 9.81284 13.2356Z" fill="#1E1E1E" fill-opacity="0.86"/>
</g>
<defs>
<clipPath id="clip0_771_1583">
<rect width="30" height="30" fill="white" transform="translate(0.5)"/>
</clipPath>
</defs>
</svg>
