<svg width="31" height="34" viewBox="0 0 31 34" fill="none" xmlns="http://www.w3.org/2000/svg">
<path d="M15.5 3.36377L2.16459 10.8702C1.3499 11.3043 0.5 12.054 0.5 13.565V24.0109C5.08012 24.0109 26.9805 24.0109 30.5 24.0109V13.565C30.5 12.054 29.6501 11.3043 28.8354 10.8702L15.5 3.36377Z" fill="#ED944A"/>
<path d="M7.07884 0.630859H23.9208C25.4317 0.630859 26.648 1.84722 26.648 3.35813V23.6253C26.648 25.1363 25.4317 26.3526 23.9208 26.3526H7.07884C5.56793 26.3526 4.35156 25.1363 4.35156 23.6253V13.4917V3.35813C4.35156 1.84722 5.56793 0.630859 7.07884 0.630859Z" fill="#F9D376"/>
<path d="M0.5 16.1323V30.6422C0.5 32.1531 1.71636 33.3695 3.22727 33.3695H27.7727C29.2836 33.3695 30.5 32.1531 30.5 30.6422V16.1323L15.5 24.8367L0.5 16.1323Z" fill="#ED944A"/>
<path d="M13.0579 9.96147C12.4147 9.96147 11.7713 10.2079 11.2784 10.7008C10.2926 11.6866 10.2926 13.274 11.2784 14.2598L14.6719 17.6531C14.8153 17.7965 15.0592 17.9972 15.5002 17.9972C15.9412 17.9972 16.1558 17.8251 16.3278 17.6531L19.7213 14.2598C20.7071 13.274 20.7071 11.6866 19.7213 10.7008C18.7355 9.71497 17.1481 9.71497 16.1623 10.7008L15.4997 11.3633L14.8375 10.7008C14.3445 10.2079 13.7012 9.96147 13.0579 9.96147Z" fill="#F5F5F5"/>
<path d="M4.66624 4.99515C4.1619 4.99515 3.65753 5.18834 3.27108 5.57479C2.49818 6.3477 2.49818 7.59221 3.27108 8.36512L5.93163 11.0255C6.04406 11.1379 6.23526 11.2952 6.581 11.2952C6.92674 11.2952 7.09502 11.1603 7.22983 11.0255L9.89038 8.36512C10.6633 7.59221 10.6633 6.3477 9.89038 5.57479C9.11748 4.80189 7.87296 4.80189 7.10006 5.57479L6.58064 6.09421L6.0614 5.57479C5.67495 5.18834 5.17058 4.99515 4.66624 4.99515Z" fill="#787878"/>
<path d="M13.3176 22.449L0.5 29.8491V30.6418C0.5 32.1527 1.71637 33.369 3.22727 33.369H27.7727C29.2836 33.369 30.5 32.1527 30.5 30.6418V29.8491L17.7832 22.5072C16.0594 21.5916 14.6322 21.8057 13.3176 22.449Z" fill="#ED944A"/>
</svg>
