<svg width="31" height="36" viewBox="0 0 31 36" fill="none" xmlns="http://www.w3.org/2000/svg">
<path d="M8.53152 7.02703C3.04223 7.17717 -0.282276 13.4082 0.658595 19.4978C1.59947 25.5874 7.14821 35.7371 11.9422 34.985C13.3559 34.7632 13.655 32.7768 15.4954 32.7768C17.2274 32.7768 17.6354 34.7632 19.0491 34.985C23.8431 35.7371 29.3919 25.5874 30.3327 19.4978C31.2736 13.4082 28.1497 7.86178 23.3557 7.1096C20.4024 6.64624 17.5056 8.11206 15.4954 10.7284C13.6891 8.37767 11.1674 6.95493 8.53152 7.02703Z" fill="#F9D376"/>
<path d="M17.5175 1.03797C18.659 1.31797 19.4465 2.49604 19.0772 3.61177L16.819 10.4347C16.0652 12.7123 13.4035 12.0491 13.7877 9.69095L14.9437 2.59768C15.1328 1.4377 16.3761 0.757877 17.5175 1.03797Z" fill="#787878"/>
<path d="M11.4354 3.91342C14.3079 5.57186 15.1864 9.42784 14.7806 10.1308C14.3771 10.8296 10.5961 12.0008 7.72361 10.3424C4.85111 8.68393 3.35339 5.90033 4.37836 4.12502C5.40333 2.34972 8.56286 2.25498 11.4354 3.91342Z" fill="#ED944A"/>
</svg>
