<svg width="31" height="30" viewBox="0 0 31 30" fill="none" xmlns="http://www.w3.org/2000/svg">
<path d="M15.5001 0C11.0839 0 7.40014 4.00049 5.39899 4.00049C3.90704 4.00049 0.5 0.937346 0.5 4.97265V15.1875C0.5 24.9875 13.559 30 15.5001 30C17.4411 30 30.5 24.9875 30.5 15.1875V4.97265C30.5 0.937346 27.093 4.00049 25.601 4.00049C23.5999 4.00049 19.9161 0 15.5001 0Z" fill="#ED944A"/>
<path d="M15.5004 23.4687C13.0506 23.4687 10.7013 22.5765 8.96904 20.9883C7.23682 19.4001 6.26367 17.246 6.26367 15C6.26367 12.7539 7.23682 10.5999 8.96904 9.01169C10.7013 7.42349 13.0506 6.53125 15.5004 6.53125C17.9501 6.53125 20.2995 7.42349 22.0317 9.01169C23.7639 10.5999 24.737 12.7539 24.737 15C24.737 17.246 23.7639 19.4001 22.0317 20.9883C20.2995 22.5765 17.9501 23.4687 15.5004 23.4687Z" fill="white"/>
<path d="M15.2194 10.3413C14.4641 10.3413 13.9507 10.9043 13.8561 11.5913L13.6148 13.3413L11.7061 13.5293C10.9551 13.6032 10.3428 14.0868 10.3428 14.7793V15.1655C10.3428 15.858 10.958 16.3203 11.7061 16.4155L13.6148 16.6587L13.8193 18.4087C13.8998 19.0972 14.4274 19.6587 15.1827 19.6587H15.8164C16.5717 19.6587 17.0677 19.0935 17.1798 18.4087L17.3843 16.6587L19.2929 16.4155C20.0411 16.3203 20.6563 15.858 20.6563 15.1655V14.7793C20.6563 14.0868 20.0439 13.6032 19.2929 13.5293L17.3843 13.3413L17.143 11.5913C17.0484 10.9043 16.535 10.3413 15.7797 10.3413H15.2194Z" fill="#F9D376"/>
</svg>
