<svg width="31" height="30" viewBox="0 0 31 30" fill="none" xmlns="http://www.w3.org/2000/svg">
<path d="M18 11.6348V30.0001H25.5C26.885 30.0001 28 28.8851 28 27.5V11.6348H18Z" fill="#F9D376" fill-opacity="0.3"/>
<path d="M28.6254 10.125C29.6609 10.125 30.5004 10.9645 30.5004 12C30.5004 13.0355 29.6609 13.875 28.6254 13.875H22.6875C21.652 13.875 20.8125 13.0355 20.8125 12C20.8125 10.9645 21.652 10.125 22.6875 10.125H28.6254Z" fill="#ED944A"/>
<path d="M22.8957 25.5002C22.2051 25.5009 21.6448 24.9414 21.6445 24.2508C21.6449 23.5603 22.2051 23.0008 22.8957 23.0015H25.6851C26.3749 23.0018 26.9341 23.561 26.9344 24.2508C26.9341 24.9407 26.3749 25.4999 25.6851 25.5002H22.8957Z" fill="white"/>
<path d="M22.8957 20.2664C22.2051 20.267 21.6448 19.7076 21.6445 19.017C21.6449 18.3264 22.2051 17.7669 22.8957 17.7676H25.6851C26.3749 17.7679 26.9341 18.3271 26.9344 19.017C26.9341 19.7068 26.3749 20.266 25.6851 20.2664H22.8957Z" fill="white"/>
<path d="M13 11.6348V30.0001H5.50001C4.115 30.0001 3 28.8851 3 27.5V11.6348H13Z" fill="#F9D376" fill-opacity="0.3"/>
<path d="M2.37501 10.125C1.33947 10.125 0.5 10.9645 0.5 12C0.5 13.0355 1.33947 13.875 2.37501 13.875H8.3129C9.34844 13.875 10.1879 13.0355 10.1879 12C10.1879 10.9645 9.34844 10.125 8.3129 10.125H2.37501Z" fill="#ED944A"/>
<path d="M8.10407 25.5002C8.79468 25.5009 9.355 24.9414 9.35528 24.2508C9.35492 23.5603 8.79468 23.0008 8.10407 23.0015H5.31476C4.6249 23.0018 4.06571 23.561 4.06543 24.2508C4.0657 24.9407 4.6249 25.4999 5.31476 25.5002H8.10407Z" fill="white"/>
<path d="M8.10407 20.2664C8.79468 20.267 9.355 19.7076 9.35528 19.017C9.35492 18.3264 8.79468 17.7669 8.10407 17.7676H5.31476C4.6249 17.7679 4.06571 18.3271 4.06543 19.017C4.0657 19.7068 4.6249 20.266 5.31476 20.2664H8.10407Z" fill="white"/>
<path d="M15.5 2.5C12.7231 2.5 7.75 2.5452 7.75 3.70689V27.5001C7.75 28.8851 8.865 30.0001 10.25 30.0001H20.75C22.1351 30.0001 23.2501 28.8851 23.2501 27.5001V3.70689C23.2501 2.5452 18.2769 2.5 15.5 2.5Z" fill="#F9D376"/>
<path d="M15.5 23.3125C13.7688 23.3125 12.375 24.7063 12.375 26.4375V30H18.625V26.4375C18.625 24.7063 17.2313 23.3125 15.5 23.3125Z" fill="#787878"/>
<path d="M10.9143 17.7676C10.2237 17.7669 9.66337 18.3264 9.66309 19.017C9.66346 19.7076 10.2237 20.267 10.9143 20.2664H13.0875C13.7774 20.266 14.3365 19.7069 14.3368 19.017C14.3365 18.3271 13.7774 17.7679 13.0875 17.7676H10.9143Z" fill="white"/>
<path d="M17.6643 17.7676C16.9737 17.7669 16.4134 18.3264 16.4131 19.017C16.4135 19.7076 16.9737 20.267 17.6643 20.2664H19.8375C20.5274 20.266 21.0865 19.7069 21.0868 19.017C21.0865 18.3271 20.5274 17.7679 19.8375 17.7676H17.6643Z" fill="white"/>
<path d="M15.2437 6.4751C14.5512 6.4751 14.0804 7.03806 13.9937 7.7251L13.7725 9.47511L12.0225 9.6631C11.3339 9.737 10.7725 10.2206 10.7725 10.9131V11.2993C10.7725 11.9918 11.3365 12.4541 12.0225 12.5493L13.7725 12.7925L13.96 14.5425C14.0337 15.2311 14.5175 15.7925 15.21 15.7925H15.791C16.4835 15.7925 16.9383 15.2274 17.041 14.5425L17.2285 12.7925L18.9785 12.5493C19.6645 12.4541 20.2286 11.9918 20.2286 11.2993V10.9131C20.2286 10.2206 19.6671 9.737 18.9785 9.6631L17.2285 9.47511L17.0073 7.7251C16.9206 7.03806 16.4498 6.4751 15.7573 6.4751H15.2437Z" fill="#ED944A"/>
<path d="M7.71778 0C7.2205 0 6.74358 0.197545 6.39195 0.549177C6.04032 0.900809 5.84277 1.37772 5.84277 1.87501C5.84277 2.37229 6.04032 2.84921 6.39195 3.20084C6.74358 3.55247 7.2205 3.75001 7.71778 3.75001H23.2807C23.5269 3.75001 23.7708 3.70152 23.9982 3.60729C24.2257 3.51306 24.4324 3.37495 24.6065 3.20084C24.7807 3.02673 24.9188 2.82003 25.013 2.59254C25.1072 2.36506 25.1557 2.12124 25.1557 1.87501C25.1557 1.37772 24.9582 0.900809 24.6065 0.549177C24.2549 0.197545 23.778 0 23.2807 0H7.71778Z" fill="#ED944A"/>
</svg>
