<svg width="21" height="32" viewBox="0 0 21 32" fill="none" xmlns="http://www.w3.org/2000/svg">
<path d="M2.66525 0H18.3342C19.5338 0 20.4995 0.951467 20.4995 2.13333V29.8667C20.4995 31.0485 19.5338 32 18.3342 32H2.66525C1.4657 32 0.5 31.0485 0.5 29.8667V2.13333C0.5 0.951467 1.4657 0 2.66525 0Z" fill="#ED944A"/>
<path d="M0.5 3.24463V25.562H20.5V3.24463H0.5Z" fill="#F9D376"/>
<path d="M10.5003 30.0101C10.9563 30.0101 11.3935 29.8316 11.7159 29.514C12.0383 29.1963 12.2194 28.7655 12.2194 28.3163C12.2194 28.0939 12.175 27.8736 12.0886 27.6681C12.0022 27.4626 11.8756 27.2759 11.7159 27.1186C11.5563 26.9614 11.3668 26.8366 11.1582 26.7515C10.9496 26.6664 10.7261 26.6226 10.5003 26.6226C10.0444 26.6226 9.60715 26.801 9.28476 27.1187C8.96237 27.4363 8.78125 27.8671 8.78125 28.3163C8.78125 28.7655 8.96237 29.1963 9.28476 29.514C9.60715 29.8316 10.0444 30.0101 10.5003 30.0101Z" fill="white"/>
</svg>
