<svg width="31" height="28" viewBox="0 0 31 28" fill="none" xmlns="http://www.w3.org/2000/svg">
<path d="M26.1565 15.1107C26.1565 15.1107 30.5002 14.4038 30.5002 11.5091C30.5002 10.2164 29.9279 11.5091 27.1216 11.5091C24.3153 11.5091 26.1565 15.1107 26.1565 15.1107Z" fill="#ED944A"/>
<path d="M7.31854 20.1401H10.5685C11.3995 20.1401 12.3103 20.8451 12.0685 21.6401L10.6623 26.2651C10.4205 27.0602 9.99329 27.7651 9.16229 27.7651H7.84979C7.01879 27.7651 6.44462 27.0907 6.34979 26.2651L5.81854 21.6401C5.72371 20.8146 6.48754 20.1401 7.31854 20.1401Z" fill="#ED944A"/>
<path d="M22.3999 20.1401H19.1499C18.3189 20.1401 17.4082 20.8451 17.6499 21.6401L19.0562 26.2651C19.2979 27.0602 19.7252 27.7651 20.5562 27.7651H21.8687C22.6997 27.7651 23.2739 27.0907 23.3687 26.2651L23.8999 21.6401C23.9948 20.8146 23.2309 20.1401 22.3999 20.1401Z" fill="#ED944A"/>
<path d="M3.79736 1.70773C3.79736 3.64116 3.95975 4.88209 4.58399 5.78634C3.78215 6.65482 2.93164 9.1747 2.93164 10.9825H2.5C1.392 10.9825 0.5 11.8745 0.5 12.9825V16.9152C0.5 18.0232 1.392 18.9152 2.5 18.9152H2.93164C4.86573 22.9383 8.97426 25.7028 13.7524 25.7028H15.9659C22.6152 25.7028 27.9684 20.3497 27.9684 13.7004C27.9684 7.05109 22.6152 1.69796 15.9659 1.69796H13.7524C12.1061 1.69796 10.5395 2.02605 9.11377 2.62082C7.8861 2.62082 6.43085 0.620785 5.1499 0.277555C4.31966 0.055094 3.79736 0.72723 3.79736 1.70773Z" fill="#F9D376"/>
<path d="M21.1455 0.23584C21.8162 0.235839 22.4803 0.367946 23.1 0.624616C23.7197 0.881287 24.2827 1.2575 24.757 1.73176C25.2312 2.20603 25.6074 2.76906 25.8641 3.38872C26.1208 4.00838 26.2529 4.67253 26.2529 5.34324C26.2529 6.01396 26.1208 6.6781 25.8641 7.29776C25.6074 7.91742 25.2312 8.48046 24.757 8.95472C24.2827 9.42899 23.7197 9.8052 23.1 10.0619C22.4803 10.3185 21.8162 10.4506 21.1455 10.4506C20.4748 10.4506 19.8106 10.3185 19.191 10.0619C18.5713 9.8052 18.0083 9.42899 17.534 8.95472C17.0597 8.48046 16.6835 7.91742 16.4269 7.29776C16.1702 6.6781 16.0381 6.01396 16.0381 5.34324C16.0381 3.98868 16.5762 2.68959 17.534 1.73176C18.4918 0.77394 19.7909 0.235841 21.1455 0.23584Z" fill="#ED944A"/>
<path d="M21.1453 8.24428C21.9148 8.24428 22.6527 7.93862 23.1968 7.39454C23.7409 6.85046 24.0465 6.11254 24.0465 5.34309C24.0465 4.9621 23.9715 4.58484 23.8257 4.23285C23.6799 3.88086 23.4662 3.56104 23.1968 3.29164C22.9274 3.02223 22.6076 2.80853 22.2556 2.66273C21.9036 2.51694 21.5263 2.44189 21.1453 2.44189C20.7643 2.44189 20.3871 2.51694 20.0351 2.66273C19.6831 2.80853 19.3633 3.02223 19.0939 3.29164C18.8245 3.56104 18.6108 3.88086 18.465 4.23285C18.3192 4.58484 18.2441 4.9621 18.2441 5.34309C18.2441 6.11254 18.5498 6.85046 19.0939 7.39454C19.638 7.93862 20.3759 8.24428 21.1453 8.24428Z" fill="#F5F5F5"/>
</svg>
