<svg width="31" height="30" viewBox="0 0 31 30" fill="none" xmlns="http://www.w3.org/2000/svg">
<path d="M29.25 4.8125C29.9425 4.8125 30.5 5.37 30.5 6.0625V13.25C30.5 13.9425 29.9425 14.5 29.25 14.5H26.5V4.8125H29.25Z" fill="#787878"/>
<path d="M1.75 4.8125C1.0575 4.8125 0.5 5.37 0.5 6.0625V13.25C0.5 13.9425 1.0575 14.5 1.75 14.5H4.5V4.8125H1.75Z" fill="#787878"/>
<path d="M5.9668 25.75V26.6855C5.9668 28.5218 7.44498 30 9.28125 30C11.1175 30 12.5957 28.5218 12.5957 26.6855V25.75H5.9668Z" fill="#787878"/>
<path d="M18.4043 25.75V26.6855C18.4043 28.5218 19.8825 30 21.7188 30C23.555 30 25.0332 28.5218 25.0332 26.6855V25.75H18.4043Z" fill="#787878"/>
<path d="M6.49964 0H24.4996C25.8846 0 26.9345 1.11653 26.9996 2.5L27.9996 23.75C28.0647 25.1335 26.8846 26.25 25.4996 26.25H5.49964C4.11464 26.25 2.93454 25.1335 2.99964 23.75L3.99964 2.5C4.06475 1.11653 5.11464 0 6.49964 0Z" fill="#F9D376"/>
<path d="M8.3125 24.125C8.00882 24.125 7.70811 24.0652 7.42754 23.949C7.14698 23.8328 6.89205 23.6624 6.67732 23.4477C6.46258 23.2329 6.29224 22.978 6.17603 22.6975C6.05981 22.4169 6 22.1162 6 21.8125C6 21.5088 6.05981 21.2081 6.17603 20.9275C6.29224 20.647 6.46258 20.3921 6.67732 20.1773C6.89205 19.9626 7.14698 19.7922 7.42754 19.676C7.70811 19.5598 8.00882 19.5 8.3125 19.5C8.92581 19.5 9.51401 19.7436 9.94768 20.1773C10.3814 20.611 10.625 21.1992 10.625 21.8125C10.625 22.4258 10.3814 23.014 9.94768 23.4477C9.51401 23.8814 8.92581 24.125 8.3125 24.125Z" fill="white"/>
<path d="M22.6875 24.125C22.3838 24.125 22.0831 24.0652 21.8025 23.949C21.522 23.8328 21.2671 23.6624 21.0523 23.4477C20.8376 23.2329 20.6672 22.978 20.551 22.6975C20.4348 22.4169 20.375 22.1162 20.375 21.8125C20.375 21.5088 20.4348 21.2081 20.551 20.9275C20.6672 20.647 20.8376 20.3921 21.0523 20.1773C21.2671 19.9626 21.522 19.7922 21.8025 19.676C22.0831 19.5598 22.3838 19.5 22.6875 19.5C22.9912 19.5 23.2919 19.5598 23.5725 19.676C23.853 19.7922 24.1079 19.9626 24.3227 20.1773C24.5374 20.3921 24.7078 20.647 24.824 20.9275C24.9402 21.2081 25 21.5088 25 21.8125C25 22.1162 24.9402 22.4169 24.824 22.6975C24.7078 22.978 24.5374 23.2329 24.3227 23.4477C24.1079 23.6624 23.853 23.8328 23.5725 23.949C23.2919 24.0652 22.9912 24.125 22.6875 24.125Z" fill="white"/>
<path d="M3.89014 4.83398L3.45605 14.0576C4.41188 16.1807 6.5406 17.6528 9.02783 17.6528H12.9682C13.7649 17.6528 14.2505 17.2443 14.2505 16.5451V6.15946C14.2505 5.63157 13.9011 4.83398 12.9792 4.83398H3.89014Z" fill="white"/>
<path d="M13.7424 20.8633C13.0518 20.8626 12.4915 21.4221 12.4912 22.1127C12.4916 22.8033 13.0518 23.3627 13.7424 23.3621H16.8531C17.543 23.3617 18.1021 22.8025 18.1024 22.1127C18.1021 21.4228 17.543 20.8636 16.8531 20.8633H13.7424Z" fill="#ED944A"/>
<path d="M27.1084 4.83398L27.5425 14.0576C26.5867 16.1807 24.4579 17.6528 21.9707 17.6528H18.0304C17.2336 17.6528 16.748 17.2443 16.748 16.5451V6.15946C16.748 5.63157 17.0974 4.83398 18.0193 4.83398H27.1084Z" fill="white"/>
</svg>
