<svg width="15" height="15" viewBox="0 0 15 15" fill="none" xmlns="http://www.w3.org/2000/svg">
<g clip-path="url(#clip0_500_7578)">
<path d="M7.5 0C6.01664 0 4.5666 0.439867 3.33323 1.26398C2.09986 2.08809 1.13856 3.25943 0.570907 4.62987C0.00324965 6.00032 -0.145275 7.50832 0.144114 8.96318C0.433503 10.418 1.14781 11.7544 2.1967 12.8033C3.2456 13.8522 4.58197 14.5665 6.03683 14.8559C7.49168 15.1453 8.99968 14.9968 10.3701 14.4291C11.7406 13.8614 12.9119 12.9001 13.736 11.6668C14.5601 10.4334 15 8.98336 15 7.5C14.9979 5.51153 14.207 3.6051 12.801 2.19904C11.3949 0.792974 9.48848 0.00211765 7.5 0ZM7.5 13.125C6.38748 13.125 5.29995 12.7951 4.37492 12.177C3.44989 11.5589 2.72892 10.6804 2.30318 9.6526C1.87744 8.62476 1.76604 7.49376 1.98309 6.40262C2.20013 5.31147 2.73586 4.3092 3.52253 3.52252C4.3092 2.73585 5.31148 2.20012 6.40262 1.98308C7.49376 1.76604 8.62476 1.87743 9.6526 2.30318C10.6804 2.72892 11.5589 3.44989 12.177 4.37492C12.7951 5.29994 13.125 6.38748 13.125 7.5C13.1234 8.99134 12.5302 10.4211 11.4757 11.4757C10.4211 12.5302 8.99135 13.1234 7.5 13.125Z" fill="#BBBBBB"/>
<path d="M10.0376 4.96215C9.95061 4.87508 9.84728 4.80601 9.73354 4.75888C9.61981 4.71176 9.49791 4.6875 9.3748 4.6875C9.25169 4.6875 9.12978 4.71176 9.01605 4.75888C8.90232 4.80601 8.79898 4.87508 8.71195 4.96215L7.4998 6.17431L6.28764 4.96215C6.11168 4.78717 5.8735 4.68909 5.62534 4.68944C5.37717 4.68978 5.13927 4.78852 4.9638 4.964C4.78832 5.13947 4.68958 5.37737 4.68924 5.62554C4.68889 5.8737 4.78696 6.11188 4.96195 6.28784L6.17411 7.5L4.96195 8.71215C4.87451 8.79911 4.80508 8.90247 4.75765 9.01631C4.71022 9.13014 4.68572 9.25222 4.68555 9.37554C4.68538 9.49886 4.70954 9.621 4.75665 9.73497C4.80377 9.84894 4.87291 9.95249 4.96011 10.0397C5.04731 10.1269 5.15086 10.196 5.26483 10.2431C5.37879 10.2903 5.50094 10.3144 5.62426 10.3142C5.74758 10.3141 5.86965 10.2896 5.98349 10.2421C6.09732 10.1947 6.20068 10.1253 6.28764 10.0378L7.4998 8.82569L8.71195 10.0378C8.88792 10.2128 9.12609 10.3109 9.37426 10.3106C9.62242 10.3102 9.86032 10.2115 10.0358 10.036C10.2113 9.86052 10.31 9.62262 10.3104 9.37446C10.3107 9.12629 10.2126 8.88812 10.0376 8.71215L8.82549 7.5L10.0376 6.28784C10.1247 6.20081 10.1938 6.09748 10.2409 5.98374C10.288 5.87001 10.3123 5.74811 10.3123 5.625C10.3123 5.50189 10.288 5.37998 10.2409 5.26625C10.1938 5.15252 10.1247 5.04918 10.0376 4.96215Z" fill="#BBBBBB"/>
</g>
<defs>
<clipPath id="clip0_500_7578">
<rect width="15" height="15" fill="white"/>
</clipPath>
</defs>
</svg>
